<?xml version="1.0" encoding="utf-8"?>
<!-- Generator: Adobe Illustrator 25.1.0, SVG Export Plug-In . SVG Version: 6.00 Build 0)  -->
<svg version="1.1" id="Layer_1" xmlns="http://www.w3.org/2000/svg" xmlns:xlink="http://www.w3.org/1999/xlink" x="0px" y="0px"
	 viewBox="0 0 128 128" style="enable-background:new 0 0 128 128;" xml:space="preserve">
<style type="text/css">
	.st0{fill:none;}
	.st1{opacity:0.8;fill-rule:evenodd;clip-rule:evenodd;enable-background:new    ;}
	.st2{fill-rule:evenodd;clip-rule:evenodd;fill:#0060C5;}
	.st3{fill-rule:evenodd;clip-rule:evenodd;fill:#FEBD38;}
	.st4{fill-rule:evenodd;clip-rule:evenodd;}
	.st5{fill-rule:evenodd;clip-rule:evenodd;fill:#FFFFFF;}
</style>
<g>
	<line class="st0" x1="0" y1="128" x2="0" y2="0"/>
</g>
<line class="st0" x1="0" y1="128" x2="0" y2="0"/>
<path class="st1" d="M9,109c-1.6,0-3-0.6-4-1.8c-1-1.2-1.3-2.8-0.9-4.5l18-77.9c0.8-3.3,3.9-5.8,7.2-5.8H119c1.6,0,3,0.6,4,1.8
	c1,1.2,1.3,2.8,0.9,4.5l-18,77.9c-0.8,3.3-3.9,5.8-7.2,5.8L9,109L9,109z"/>
<path class="st2" d="M74.1,20L64,64H14.5l8.9-39c0.6-2.8,3.4-5,6.2-5H74.1z"/>
<path class="st3" d="M122.4,25l-8.9,39H64l10.1-44h44.4C121.3,20,123,22.3,122.4,25z"/>
<path class="st2" d="M113.4,64l-8.9,39c-0.6,2.8-3.4,5-6.2,5H53.9L64,64H113.4z"/>
<path class="st3" d="M64,64l-10.1,44H9.5c-2.8,0-4.5-2.3-3.9-5l8.9-39H64z"/>
<path class="st4" d="M77.7,66.5c-0.4,0.7-1.1,1.6-2.5,2.5L35.1,97.8c-2.2,1.6-5.3,1-7-1.3S26.8,91,29,89.4l36.2-26.2v-0.5L42.4,38.5
	c-1.9-2-1.7-5.2,0.4-7.1c2.1-2,5.3-2,7.1,0l27.3,29C78.8,62,78.9,64.5,77.7,66.5z"/>
<path class="st5" d="M76.7,65.5c-0.4,0.7-1.1,1.6-2.5,2.5L34.1,96.8c-2.2,1.6-5.3,1-7-1.3S25.8,90,28,88.4l36.2-26.2v-0.5L41.4,37.5
	c-1.9-2-1.7-5.2,0.4-7.1c2.1-2,5.3-2,7.1,0l27.3,29C77.8,61,77.9,63.5,76.7,65.5z"/>
<line class="st0" x1="93.9" y1="-66.5" x2="74.1" y2="20"/>
<path class="st4" d="M77.6,32.5h21.6c2.5,0,4.6,2.1,4.6,4.7s-2,4.7-4.6,4.7H77.6c-2.5,0-4.5-2.1-4.5-4.7
	C73.1,34.6,75.1,32.5,77.6,32.5z"/>
<path class="st5" d="M77,31.9h21.6c2.5,0,4.6,2,4.6,4.5s-2,4.5-4.6,4.5H77c-2.5,0-4.6-2-4.6-4.5S74.5,31.9,77,31.9z"/>
</svg>
